# xmcd
# 
# Track frame offsets:
#     150
#     94102
#     102290
#     120287
#     137582
#     152685
#     166295
#     176282
# 
# Disc length: 2548
# 
# Revision: 0
# Processed by: cddbd v1.5.2PL0 Copyright (c) Steve Scherf et al.
# Submitted via: fre:ac v1.0.17
# 
DISCID=5509f208
DTITLE=Emerson, Lake and Palmer - Tarkus (Platinum SHM CD Japan)
DYEAR=1971
DGENRE=Progressive Rock
TTITLE0=Tarkus
TTITLE1=Jeremy Bender
TTITLE2=Bitches Crystal
TTITLE3=The Only Way (Hymn)
TTITLE4=Infinite Space (Conclusion)
TTITLE5=A Time And A Place
TTITLE6=Are You Ready Eddy
TTITLE7=Prelude And Fugue
EXTD=
EXTT0=
EXTT1=
EXTT2=
EXTT3=
EXTT4=
EXTT5=
EXTT6=
EXTT7=
PLAYORDER=
